{"title":"Paranormal.Activity.2007.720p.BRRip.XviD.AC3-PsychoLogic","uid":6568878,"size":1928931549,"categoryP":"video","categoryS":"hd___movies","magnet":"?xt=urn:btih:562652039d3627d949a47bd850f36be749d3b5d1&amp;dn=Paranormal.Activity.2007.720p.BRRip.XviD.AC3-PsychoLogic&amp;tr=udp%3A%2F%2Ftracker.openbittorrent.com%3A80&amp;tr=udp%3A%2F%2Fopen.demonii.com%3A1337&amp;tr=udp%3A%2F%2Ftracker.coppersurfer.tk%3A6969&amp;tr=udp%3A%2F%2Fexodus.desync.com%3A6969","seeders":1,"leechers":1,"uploader":"PsychoLogic","files":16,"time":1311814081,"description":"Release Information:\n\nParanormal.Activity.2007.720p.BRRip.XviD.AC3-PsychoLogic\n\nSource                           : Paranormal.Activity.2007.1080p.BluRay.DTS.x264-FoRM\nSubtitles                        : Danish, Dutch, English, Finnish, French, Italian, Norwegian, Polish, Portuguese-BR, Romanian, Spanish, Swedish\nLanguage                         : English\nEncoded By                       : PsychoLogic\nSample Included                  : Yes\n\nMovie Information                : http://www.imdb.com/title/tt1179904/\nGenre                            : Horror | Mystery \nDirector                         : Oren Peli\nCast                             : Katie Featherston, Micah Sloat and Mark Fredrichs\nPlot                             : After moving into a suburban home, a couple becomes increasingly disturbed by a nightly demonic presence. \n\nGeneral\nFormat                           : AVI\nFormat/Info                      : Audio Video Interleave\nFile size                        : 1.78 GiB\nDuration                         : 1h 26mn\nOverall bit rate                 : 2 946 Kbps\nWriting application              : VirtualDubMod 1.5.10.2 (build 2542/release)\nWriting library                  : VirtualDubMod build 2542/release\n\nVideo\nID                               : 0\nFormat                           : MPEG-4 Visual\nFormat profile                   : Advanced Simple@L5\nFormat settings, BVOP            : 2\nFormat settings, QPel            : No\nFormat settings, GMC             : No warppoints\nFormat settings, Matrix          : Default (H.263)\nCodec ID                         : XVID\nCodec ID/Hint                    : XviD\nDuration                         : 1h 26mn\nBit rate                         : 2 489 Kbps\nWidth                            : 1 280 pixels\nHeight                           : 720 pixels\nDisplay aspect ratio             : 16:9\nFrame rate                       : 23.976 fps\nColor space                      : YUV\nChroma subsampling               : 4:2:0\nBit depth                        : 8 bits\nScan type                        : Progressive\nCompression mode                 : Lossy\nBits/(Pixel*Frame)               : 0.113\nStream size                      : 1.50 GiB (84%)\nWriting library                  : XviD 1.2.1 (UTC 2008-12-04)\n\nAudio\nID                               : 1\nFormat                           : AC-3\nFormat/Info                      : Audio Coding 3\nMode extension                   : CM (complete main)\nCodec ID                         : 2000\nDuration                         : 1h 26mn\nBit rate mode                    : Constant\nBit rate                         : 448 Kbps\nChannel(s)                       : 6 channels\nChannel positions                : Front: L C R, Side: L R, LFE\nSampling rate                    : 48.0 KHz\nBit depth                        : 16 bits\nCompression mode                 : Lossy\nStream size                      : 276 MiB (15%)\nAlignment                        : Split accross interleaves\nInterleave, duration             : 42 ms (1.00 video frame)\nInterleave, preload duration     : 500 ms\n\n","torrent":{"xt":"urn:btih:562652039d3627d949a47bd850f36be749d3b5d1","amp;dn":"Paranormal.Activity.2007.720p.BRRip.XviD.AC3-PsychoLogic","amp;tr":["udp%3A%2F%2Ftracker.openbittorrent.com%3A80","udp%3A%2F%2Fopen.demonii.com%3A1337","udp%3A%2F%2Ftracker.coppersurfer.tk%3A6969","udp%3A%2F%2Fexodus.desync.com%3A6969"],"infoHash":"562652039d3627d949a47bd850f36be749d3b5d1","infoHashBuffer":{"type":"Buffer","data":[86,38,82,3,157,54,39,217,73,164,123,216,80,243,107,231,73,211,181,209]},"announce":[],"urlList":[]}}